<?xml version="1.0" encoding="UTF-8" standalone="no"?> <svg width="60" height="60" viewBox="0 0 60 60" fill="none" xmlns="http://www.w3.org/2000/svg">
<g clip-path="url(#clip0)">
<path d="M55.4201 17.75V46.98C55.4214 47.3407 55.3515 47.698 55.2144 48.0316C55.0773 48.3652 54.8757 48.6685 54.6211 48.924C54.3666 49.1795 54.0641 49.3822 53.731 49.5205C53.3979 49.6588 53.0407 49.73 52.6801 49.73H7.32008C6.59217 49.7283 5.89469 49.4377 5.38092 48.9221C4.86714 48.4064 4.5791 47.7079 4.58008 46.98V17.75H55.4201Z" fill="#E2E9EE"/>
<path d="M55.4201 8.3599V17.7499H4.58008V8.3599C4.58157 7.63459 4.87104 6.93955 5.38486 6.42761C5.89867 5.91567 6.59476 5.62874 7.32008 5.6299H52.6801C53.0395 5.62849 53.3956 5.69806 53.728 5.83463C54.0604 5.9712 54.3626 6.17208 54.6172 6.42573C54.8718 6.67939 55.0737 6.98083 55.2115 7.31274C55.3493 7.64466 55.4202 8.00052 55.4201 8.3599V8.3599Z" fill="#A7BDCD"/>
<path d="M43.0212 10.2507H41.5348C40.9913 10.2507 40.47 10.0348 40.0856 9.65046C39.7012 9.2661 39.4853 8.7448 39.4853 8.20124V3.0495C39.4853 2.50594 39.7012 1.98464 40.0856 1.60028C40.47 1.21593 40.9913 1 41.5348 1H43.0212C43.5647 1 44.086 1.21593 44.4704 1.60028C44.8547 1.98464 45.0707 2.50594 45.0707 3.0495V8.20124C45.0707 8.7448 44.8547 9.2661 44.4704 9.65046C44.086 10.0348 43.5647 10.2507 43.0212 10.2507V10.2507ZM20.473 8.20124V3.0495C20.473 2.50594 20.2571 1.98464 19.8728 1.60028C19.4884 1.21593 18.9671 1 18.4235 1H16.9372C16.3936 1 15.8723 1.21593 15.488 1.60028C15.1036 1.98464 14.8877 2.50594 14.8877 3.0495V8.20124C14.8877 8.7448 15.1036 9.2661 15.488 9.65046C15.8723 10.0348 16.3936 10.2507 16.9372 10.2507H18.4235C18.9671 10.2507 19.4884 10.0348 19.8728 9.65046C20.2571 9.2661 20.473 8.7448 20.473 8.20124Z" fill="#628296"/>
<path d="M44.3636 44.6362C44.3636 47.477 43.5212 50.2541 41.9429 52.6162C40.3646 54.9783 38.1213 56.8193 35.4967 57.9065C32.8721 58.9936 29.984 59.2781 27.1977 58.7239C24.4114 58.1696 21.8521 56.8016 19.8433 54.7928C17.8345 52.784 16.4665 50.2247 15.9122 47.4384C15.358 44.6521 15.6425 41.764 16.7296 39.1394C17.8168 36.5148 19.6578 34.2715 22.0199 32.6932C24.382 31.1149 27.1591 30.2725 29.9999 30.2725C33.8094 30.2725 37.4629 31.7858 40.1566 34.4795C42.8503 37.1732 44.3636 40.8267 44.3636 44.6362V44.6362Z" fill="#D1A184"/>
<path d="M30 60C26.9613 60.0001 23.9909 59.0991 21.4642 57.411C18.9376 55.7228 16.9683 53.3234 15.8054 50.516C14.6425 47.7087 14.3382 44.6195 14.9309 41.6392C15.5237 38.6589 16.9869 35.9213 19.1355 33.7726C21.2842 31.6239 24.0217 30.1606 27.002 29.5677C29.9823 28.9749 33.0715 29.2791 35.8789 30.4419C38.6863 31.6047 41.0858 33.574 42.774 36.1005C44.4622 38.6271 45.3633 41.5975 45.3633 44.6362C45.3588 48.7095 43.7388 52.6147 40.8586 55.4949C37.9784 58.3752 34.0733 59.9954 30 60V60ZM30 31.2725C27.3569 31.2724 24.7731 32.0561 22.5754 33.5244C20.3777 34.9928 18.6647 37.0799 17.6532 39.5218C16.6416 41.9637 16.3769 44.6507 16.8925 47.2431C17.4081 49.8354 18.6808 52.2167 20.5498 54.0857C22.4187 55.9547 24.7999 57.2275 27.3922 57.7432C29.9845 58.2589 32.6716 57.9942 35.1135 56.9828C37.5555 55.9713 39.6426 54.2585 41.1111 52.0608C42.5795 49.8631 43.3633 47.2794 43.3633 44.6362C43.3593 41.0933 41.9501 37.6965 39.4449 35.1912C36.9397 32.6859 33.543 31.2766 30 31.2725V31.2725ZM4.57764 37.3394C4.31242 37.3393 4.05808 37.234 3.87054 37.0465C3.68301 36.8589 3.57765 36.6046 3.57764 36.3394V34.5859C3.57764 34.3207 3.68299 34.0664 3.87053 33.8788C4.05807 33.6913 4.31242 33.5859 4.57764 33.5859C4.84285 33.5859 5.09721 33.6913 5.28474 33.8788C5.47228 34.0664 5.57764 34.3207 5.57764 34.5859V36.3394C5.57762 36.6046 5.47226 36.8589 5.28473 37.0464C5.09719 37.234 4.84285 37.3393 4.57764 37.3394V37.3394ZM52.6824 4.63H46.0724V3.05C46.0709 2.24156 45.7491 1.46666 45.1774 0.895C44.6058 0.323343 43.8309 0.00151726 43.0224 7.80917e-08H41.5424C41.1419 -9.05705e-05 40.7452 0.0787381 40.3751 0.231983C40.005 0.385228 39.6688 0.609885 39.3855 0.893122C39.1023 1.17636 38.8777 1.51262 38.7244 1.88271C38.5712 2.25279 38.4923 2.64944 38.4924 3.05V4.63H21.4724V3.05C21.4709 2.24155 21.1491 1.46666 20.5774 0.894997C20.0058 0.323339 19.2309 0.00151463 18.4224 7.80917e-08H16.9424C16.134 0.00151463 15.3591 0.323339 14.7874 0.894997C14.2158 1.46666 13.8939 2.24155 13.8924 3.05V4.63H7.32243C6.33213 4.62962 5.38214 5.02216 4.68096 5.72146C3.97978 6.42077 3.58469 7.36971 3.58243 8.36V30.2C3.58243 30.4652 3.68778 30.7196 3.87532 30.9071C4.06286 31.0946 4.31721 31.2 4.58243 31.2C4.84764 31.2 5.102 31.0946 5.28953 30.9071C5.47707 30.7196 5.58243 30.4652 5.58243 30.2V18.75H54.4224V46.98C54.4225 47.4424 54.2395 47.8861 53.9135 48.214C53.5874 48.5419 53.1448 48.7274 52.6824 48.73H46.9824C46.7172 48.73 46.4629 48.8354 46.2753 49.0229C46.0878 49.2104 45.9824 49.4648 45.9824 49.73C45.9824 49.9952 46.0878 50.2496 46.2753 50.4371C46.4629 50.6246 46.7172 50.73 46.9824 50.73H52.6824C53.6753 50.7276 54.6267 50.3314 55.3278 49.6283C56.029 48.9253 56.4226 47.9729 56.4224 46.98V8.36C56.4202 7.36971 56.0251 6.42077 55.3239 5.72146C54.6227 5.02216 53.6727 4.62962 52.6824 4.63V4.63ZM40.4924 3.05C40.4924 2.91211 40.5196 2.77556 40.5723 2.64816C40.6251 2.52076 40.7024 2.405 40.7999 2.3075C40.8974 2.20999 41.0132 2.13265 41.1406 2.07989C41.268 2.02713 41.4045 1.99998 41.5424 2H43.0224C43.1603 1.99998 43.2969 2.02713 43.4243 2.07989C43.5517 2.13265 43.6674 2.20999 43.7649 2.3075C43.8624 2.405 43.9398 2.52076 43.9925 2.64816C44.0453 2.77556 44.0724 2.91211 44.0724 3.05V8.2C44.0724 8.33789 44.0453 8.47444 43.9925 8.60183C43.9398 8.72923 43.8624 8.84499 43.7649 8.94249C43.6674 9.04 43.5517 9.11734 43.4243 9.1701C43.2969 9.22286 43.1603 9.25001 43.0224 9.25H41.5424C41.4045 9.25001 41.268 9.22286 41.1406 9.1701C41.0132 9.11734 40.8974 9.04 40.7999 8.94249C40.7024 8.84499 40.6251 8.72923 40.5723 8.60183C40.5196 8.47444 40.4924 8.33789 40.4924 8.2V3.05ZM15.8924 3.05C15.8924 2.91211 15.9195 2.77556 15.9723 2.64816C16.0251 2.52075 16.1024 2.40499 16.1999 2.30749C16.2974 2.20998 16.4132 2.13264 16.5406 2.07988C16.668 2.02712 16.8045 1.99998 16.9424 2H18.4224C18.5603 1.99998 18.6969 2.02712 18.8243 2.07988C18.9517 2.13264 19.0674 2.20998 19.1649 2.30749C19.2624 2.40499 19.3398 2.52075 19.3925 2.64816C19.4453 2.77556 19.4724 2.91211 19.4724 3.05V8.2C19.4724 8.33789 19.4453 8.47444 19.3925 8.60184C19.3398 8.72924 19.2624 8.845 19.1649 8.9425C19.0674 9.04001 18.9517 9.11735 18.8243 9.17011C18.6969 9.22287 18.5603 9.25002 18.4224 9.25H16.9424C16.8045 9.25002 16.668 9.22287 16.5406 9.17011C16.4132 9.11735 16.2974 9.04001 16.1999 8.9425C16.1024 8.845 16.0251 8.72924 15.9723 8.60184C15.9196 8.47444 15.8924 8.33789 15.8924 8.2V3.05ZM5.58243 16.75V8.36C5.58484 7.90019 5.76925 7.46004 6.09533 7.13583C6.4214 6.81163 6.86261 6.62976 7.32243 6.63H13.8924V8.2C13.8939 9.00844 14.2158 9.78334 14.7874 10.355C15.3591 10.9267 16.134 11.2485 16.9424 11.25H18.4224C19.2309 11.2485 20.0058 10.9267 20.5774 10.355C21.1491 9.78334 21.4709 9.00844 21.4724 8.2V6.63H38.4924V8.2C38.4923 8.60056 38.5712 8.99721 38.7244 9.36729C38.8777 9.73738 39.1023 10.0736 39.3855 10.3569C39.6688 10.6401 40.005 10.8648 40.3751 11.018C40.7452 11.1713 41.1419 11.2501 41.5424 11.25H43.0224C43.8309 11.2485 44.6058 10.9267 45.1774 10.355C45.7491 9.78334 46.0709 9.00844 46.0724 8.2V6.63H52.6824C53.1422 6.62976 53.5834 6.81163 53.9095 7.13583C54.2356 7.46004 54.42 7.90019 54.4224 8.36V16.75H5.58243ZM13.0224 50.73H7.32227C6.32941 50.7275 5.37808 50.3313 4.67698 49.6283C3.97588 48.9253 3.58228 47.9729 3.58252 46.98V40.7202C3.58252 40.455 3.68787 40.2006 3.87541 40.0131C4.06295 39.8256 4.3173 39.7202 4.58252 39.7202C4.84773 39.7202 5.10209 39.8256 5.28962 40.0131C5.47716 40.2006 5.58252 40.455 5.58252 40.7202V46.98C5.58167 47.4426 5.76437 47.8867 6.09053 48.2147C6.41668 48.5428 6.85966 48.7281 7.32227 48.73H13.0225C13.2877 48.73 13.542 48.8354 13.7296 49.0229C13.9171 49.2104 14.0225 49.4648 14.0225 49.73C14.0225 49.9952 13.9171 50.2496 13.7296 50.4371C13.542 50.6246 13.2877 50.73 13.0225 50.73H13.0224ZM30.8838 46.918L36.977 40.8242C37.0702 40.7315 37.1442 40.6212 37.1947 40.4998C37.2452 40.3784 37.2712 40.2483 37.2714 40.1168C37.2715 39.9853 37.2457 39.8551 37.1955 39.7336C37.1452 39.6121 37.0715 39.5017 36.9785 39.4087C36.8856 39.3158 36.7752 39.242 36.6537 39.1918C36.5322 39.1415 36.402 39.1157 36.2705 39.1159C36.139 39.116 36.0088 39.1421 35.8874 39.1926C35.7661 39.2431 35.6558 39.317 35.563 39.4102L30.1768 44.7969L22.3965 37.0166C22.209 36.8291 21.9547 36.7237 21.6895 36.7237C21.4243 36.7237 21.17 36.8291 20.9824 37.0166C20.7949 37.2041 20.6896 37.4584 20.6896 37.7236C20.6896 37.9888 20.7949 38.2431 20.9824 38.4307L29.4698 46.918C29.5626 47.0109 29.6728 47.0846 29.7941 47.1348C29.9154 47.1851 30.0455 47.211 30.1768 47.211C30.3081 47.211 30.4381 47.1851 30.5595 47.1348C30.6808 47.0846 30.791 47.0109 30.8838 46.918H30.8838ZM31 56.4673V54.0601C31 53.7948 30.8947 53.5405 30.7071 53.353C30.5196 53.1654 30.2652 53.0601 30 53.0601C29.7348 53.0601 29.4805 53.1654 29.2929 53.353C29.1054 53.5405 29 53.7948 29 54.0601V56.4673C29 56.7325 29.1054 56.9869 29.2929 57.1744C29.4805 57.3619 29.7348 57.4673 30 57.4673C30.2652 57.4673 30.5196 57.3619 30.7071 57.1744C30.8947 56.9869 31 56.7325 31 56.4673ZM31 35.2124V32.8057C31 32.5404 30.8947 32.2861 30.7071 32.0986C30.5196 31.911 30.2652 31.8057 30 31.8057C29.7348 31.8057 29.4805 31.911 29.2929 32.0986C29.1054 32.2861 29 32.5404 29 32.8057V35.2124C29 35.4776 29.1054 35.732 29.2929 35.9195C29.4805 36.107 29.7348 36.2124 30 36.2124C30.2652 36.2124 30.5196 36.107 30.7071 35.9195C30.8947 35.732 31 35.4776 31 35.2124ZM42.831 44.6362C42.831 44.371 42.7257 44.1167 42.5381 43.9291C42.3506 43.7416 42.0962 43.6362 41.831 43.6362H39.4239C39.1586 43.6362 38.9043 43.7416 38.7168 43.9291C38.5292 44.1167 38.4239 44.371 38.4239 44.6362C38.4239 44.9014 38.5292 45.1558 38.7168 45.3433C38.9043 45.5309 39.1586 45.6362 39.4239 45.6362H41.8311C42.0963 45.6362 42.3506 45.5309 42.5382 45.3433C42.7257 45.1558 42.8311 44.9014 42.8311 44.6362H42.831ZM21.5761 44.6362C21.5761 44.371 21.4708 44.1167 21.2833 43.9291C21.0957 43.7416 20.8414 43.6362 20.5761 43.6362H18.169C17.9038 43.6362 17.6495 43.7416 17.4619 43.9291C17.2744 44.1167 17.169 44.371 17.169 44.6362C17.169 44.9014 17.2744 45.1558 17.4619 45.3433C17.6495 45.5309 17.9038 45.6362 18.169 45.6362H20.5762C20.8415 45.6362 21.0958 45.5309 21.2833 45.3433C21.4708 45.1558 21.5762 44.9014 21.5762 44.6362H21.5761Z" fill="black"/>
</g>
<defs>
<clipPath id="clip0">
<rect width="60" height="60" fill="white"/>
</clipPath>
</defs>
</svg>
